<svg xmlns="http://www.w3.org/2000/svg" width="50" height="50">
  <title>
    Statistics
  </title>
  <defs>
    <linearGradient id="a" x1="12.9932%" x2="85.0918%" y1="13.5322%" y2="88.25%">
      <stop stop-color="#BDF7EC" offset="0%"/>
      <stop stop-color="#88EBD4" offset="100%"/>
    </linearGradient>
  </defs>
  <g fill="none" fill-rule="evenodd">
    <circle cx="25" cy="25" r="25" fill="url(#a)"/>
    <path fill="#FFF" d="M12 28c1.1046 0 2 .8954 2 2s-.8954 2-2 2-2-.8954-2-2 .8954-2 2-2zm9-8c1.1046 0 2 .8954 2 2s-.8954 2-2 2-2-.8954-2-2 .8954-2 2-2zm9 7c1.1046 0 2 .8954 2 2s-.8954 2-2 2-2-.8954-2-2 .8954-2 2-2zm7-13c1.1046 0 2 .8954 2 2s-.8954 2-2 2-2-.8954-2-2 .8954-2 2-2z"/>
    <path fill="#35424F" d="M26.4477 27.1594C26.1617 27.7104 26 28.3364 26 29c0 2.209 1.791 4 4 4s4-1.791 4-4c0-1.0164-.379-1.9442-1.0035-2.6498l2.9012-5.9095.26-.5296c.2715.0587.5533.089.8423.089 2.209 0 4-1.791 4-4s-1.791-4-4-4-4 1.791-4 4c0 1.2026.5304 2.281 1.37 3.014l-.2677.5456-2.7807 5.6642C30.908 25.0788 30.463 25 30 25c-.8182 0-1.579.2456-2.2127.6672l-3.015-2.334C24.92 22.9162 25 22.4676 25 22c0-2.209-1.791-4-4-4s-4 1.791-4 4c0 .4744.0826.9294.234 1.3517l-2.941 2.9412-.261.2605C13.4365 26.2015 12.7418 26 12 26c-2.209 0-4 1.791-4 4s1.791 4 4 4 4-1.791 4-4c0-.7418-.202-1.4365-.5538-2.032l.261-.261 2.679-2.679c.701.6057 1.6147.972 2.6138.972 1.0172 0 1.9457-.3797 2.6516-1.005l2.796 2.1644zM28 29c0-1.1046.8954-2 2-2s2 .8954 2 2-.8954 2-2 2-2-.8954-2-2zm-16-1c1.1046 0 2 .8954 2 2s-.8954 2-2 2-2-.8954-2-2 .8954-2 2-2zm9-8c1.1046 0 2 .8954 2 2s-.8954 2-2 2-2-.8954-2-2 .8954-2 2-2zm16-6c1.1046 0 2 .8954 2 2s-.8954 2-2 2-2-.8954-2-2 .8954-2 2-2z"/>
  </g>
</svg>
