<svg xmlns="http://www.w3.org/2000/svg" width="50" height="50">
  <title>
    30_code
  </title>
  <defs>
    <linearGradient id="a" x1="12.993%" x2="85.092%" y1="13.532%" y2="88.25%">
      <stop stop-color="#BDF7EC" offset="0%"/>
      <stop stop-color="#88EBD4" offset="100%"/>
    </linearGradient>
  </defs>
  <g fill="none" fill-rule="evenodd">
    <circle cx="25" cy="25" r="25" fill="url(#a)"/>
    <rect width="21" height="18" x="15" y="18" fill="#FFF" rx="1"/>
    <path fill="#35424F" d="M20.904 26.674h.885c.44 0 .77-.112.99-.337.21-.225.32-.52.32-.882 0-.168-.03-.32-.08-.46s-.12-.258-.22-.357c-.1-.1-.22-.177-.37-.232-.15-.054-.33-.082-.53-.082-.17 0-.32.024-.46.07-.14.047-.27.115-.38.203-.11.088-.19.194-.26.32-.06.124-.09.265-.09.42H19.1c0-.347.07-.663.213-.948.143-.29.34-.54.59-.74.25-.21.543-.37.88-.48.34-.12.703-.17 1.094-.17.422 0 .81.05 1.16.15.352.1.652.26.902.46s.44.46.58.76c.14.3.21.65.21 1.05 0 .18-.03.36-.09.54-.06.18-.14.35-.24.51-.11.16-.24.3-.39.44-.16.13-.34.25-.54.34.24.08.44.19.62.33.17.13.31.28.43.45.11.17.19.35.25.56.05.2.08.41.08.64 0 .4-.08.75-.23 1.06-.15.31-.36.57-.63.78-.27.21-.58.37-.95.48-.37.11-.76.17-1.18.17-.37 0-.72-.05-1.07-.15-.35-.1-.66-.25-.92-.45-.27-.2-.49-.455-.65-.76-.16-.306-.24-.666-.24-1.08h1.63c0 .165.03.316.09.455.06.14.15.26.26.36.11.1.25.18.4.24.15.06.33.085.51.085.41 0 .74-.11.97-.33.23-.22.35-.52.35-.89 0-.23-.03-.43-.1-.593-.07-.16-.168-.3-.29-.4-.13-.11-.28-.188-.46-.238-.18-.05-.38-.08-.6-.08h-.88v-1.26zm11.116 1.734c0 .55-.064 1.036-.19 1.456-.128.42-.31.772-.55 1.055-.237.28-.528.49-.872.64-.344.14-.73.21-1.16.21-.426 0-.81-.07-1.154-.22-.344-.15-.636-.36-.876-.64-.24-.29-.426-.64-.557-1.06-.13-.42-.19-.91-.19-1.46v-2.04c0-.55.07-1.04.2-1.46.13-.42.32-.77.56-1.06.24-.29.53-.5.88-.64.34-.15.73-.22 1.15-.22.43 0 .82.07 1.16.21.35.14.64.35.88.64.24.28.43.63.55 1.05.13.42.2.9.2 1.45v2.04zm-3.915-.703l2.274-1.693c-.02-.575-.12-1-.3-1.278-.19-.277-.47-.416-.85-.416s-.66.147-.85.44c-.19.293-.28.744-.28 1.353v1.6zm2.274-.586L28.1 28.8c.02.562.123.98.31 1.25.19.272.465.408.832.408.383 0 .667-.15.853-.444.185-.298.28-.753.28-1.367v-1.53z"/>
    <path fill="#35424F" d="M18 15c-2.218.003-4 1.797-4 4.01v13.98C14 35.2 15.794 37 18.006 37h14.988C35.214 37 37 35.205 37 32.99V19.01c0-2.208-1.79-4.007-4-4.01H18zm-2 17.99c0 1.108.9 2.01 2.006 2.01h14.988C34.106 35 35 34.104 35 32.99V20H16v12.99z"/>
    <rect width="3" height="6" x="20" y="12" fill="#35424F" rx="1.5"/>
    <rect width="3" height="6" x="28" y="12" fill="#35424F" rx="1.5"/>
  </g>
</svg>
