<svg xmlns="http://www.w3.org/2000/svg" width="50" height="50">
  <title>
    Cracking
  </title>
  <defs>
    <linearGradient id="a" x1="12.993164%" x2="85.091797%" y1="13.532227%" y2="88.25%">
      <stop stop-color="#BDF7EC" offset="0%"/>
      <stop stop-color="#88EBD4" offset="100%"/>
    </linearGradient>
  </defs>
  <g fill="none" fill-rule="evenodd">
    <circle cx="25" cy="25" r="25" fill="url(#a)"/>
    <path fill="#FFF" d="M34.00891 33.095692c1.64932 0 2.99109-1.341984 2.99109-2.997405V18.997405C37 17.34147 35.660843 16 34.00891 16H15.99109C14.34177 16 13 17.341984 13 18.997405v11.100882c0 1.655935 1.339157 2.997405 2.99109 2.997405h6.944894l4.213686 4.19402c.399976.398108.722343.261662.735153-.289707l.09071-3.904313h6.033377z"/>
    <path fill="#35424F" d="M34.00891 33.095692c1.64932 0 2.99109-1.341984 2.99109-2.997405V18.997405C37 17.34147 35.660843 16 34.00891 16H15.99109C14.34177 16 13 17.341984 13 18.997405v11.100882c0 1.655935 1.339157 2.997405 2.99109 2.997405h6.944894l4.213686 4.19402c.399976.398108.722343.261662.735153-.289707l.09071-3.904313m1.90875 3.950767c-.053678 2.31044-2.501688 3.29692-4.145515 1.66077l-3.628472-3.61154H15.99109C13.233518 35.09569 11 32.85772 11 30.098284v-11.10088C11 16.23899 13.235624 14 15.99109 14h18.01782C36.766482 14 39 16.237968 39 18.997405v11.100882c0 2.758413-2.235624 4.997405-4.99109 4.997405h-4.079304"/>
    <path fill="#35424F" d="M16.47284 23.58079l5.283756-4.40313c.48579-.32386 1.14214-.19259 1.466.2932.32386.48579.19259 1.14214-.2932 1.466l-4.225518 3.521264 4.315887 3.596573c.448523.37377.509123 1.04037.135354 1.488892-.37377.44852-1.04037.50912-1.488898.13535l-5.266884-4.38907c-.045635-.036286-.088667-.07671-.12851-.121164-.004314-.00479-.00858-.00961-.01279-.014464-.028583-.033157-.055466-.068432-.08038-.105805-.130884-.196327-.187433-.420508-.17629-.63934.00927-.21657.089543-.438765.243766-.62383.032987-.039587.068256-.07615.105454-.10966.004787-.004288.009617-.00854.014494-.01275.034417-.029948.070435-.0573.10776-.08207zm17.454574 1.762414l-5.283755 4.40313c-.48579.32386-1.14214.19259-1.466-.2932-.32386-.48579-.19259-1.14214.2932-1.466l4.225514-3.521265-4.315888-3.596577c-.448524-.37377-.509124-1.04037-.135354-1.488892.37377-.448523 1.04037-.509123 1.488892-.135353l5.266884 4.38907c.045635.036287.088666.076713.12851.121164.004313.00479.008577.00961.01279.014465.028582.033156.055465.06843.08038.105803.130883.196324.187432.420505.17629.63934-.009273.216567-.089544.438762-.243766.62383-.03299.039584-.068257.07615-.105456.10966-.004784.004286-.009614.00854-.01449.01275-.034418.029946-.070436.0573-.10776.08207z"/>
  </g>
</svg>
